<svg id="Layer_1" data-name="Layer 1" xmlns="http://www.w3.org/2000/svg" viewBox="0 0 843.06 58.96"><defs><style>.cls-1,.cls-2{fill:#302d7e;}.cls-1{opacity:0.2;}</style></defs><path class="cls-1" d="M1.15,68.51.81,31.74h0c40.65-2.89,113.72,38.78,214.31,11.6,157-42.42,184.08-29.73,366.38,6,153.26,30,261.35-22.62,261.35-22.62l-.17,46.57" transform="translate(0.21 -14.32)"/><path class="cls-2" d="M841.84,28S733.75,80.63,580.48,50.59C398.19,14.87,371.09,2.18,214.1,44.6,113.51,71.78,40.44,30.11-.21,33h0V29.43h0C40.44,26.55,113.51,68.22,214.1,41c157-42.42,184.09-29.73,366.38,6,153.27,30,261.36-22.62,261.36-22.62Z" transform="translate(0.21 -14.32)"/></svg>